<?xml version="1.0" encoding="utf-8"?>
<!-- Generator: Adobe Illustrator 26.0.1, SVG Export Plug-In . SVG Version: 6.00 Build 0)  -->
<svg version="1.1" id="Capa_1" xmlns="http://www.w3.org/2000/svg" xmlns:xlink="http://www.w3.org/1999/xlink" x="0px" y="0px"
	 viewBox="0 0 595.28 841.89" style="enable-background:new 0 0 595.28 841.89;" xml:space="preserve">
<style type="text/css">
	.st0{fill:#f8f8f8;}
	.st1{fill:#3B474F;}
	.st2{fill:#202B2F;}
	.st3{fill:#E59D35;}
	.st4{fill:#859AA7;}
	.st5{fill:#8AB3C3;}
</style>
<path class="st0" d="M493.28,315.68H361.25c0.11-18.89,0.2-37.79,0.28-56.68l0.14-29.49c0-0.85,0.05-1.77,0.1-2.76
	c0.09-1.79,0.18-3.82,0.06-5.98c-0.75-13.3-3.81-26.63-9.35-40.76c-4.4-11.22-10.09-21.91-16.9-31.79
	c-8.62-12.51-17.22-21.5-27.08-28.29c-7.16-4.94-14.16-4.97-21.39-0.11c-7.74,5.2-14.83,12.05-22.32,21.56
	c-5.01,6.36-9.64,13.56-13.75,21.4c-0.11,0.18-0.23,0.34-0.35,0.51c-0.58,0.84-1.38,1.99-2.05,3.51c-1.98,4.47-3.65,8.44-5.11,12.13
	l-0.13,0.33c-1.76,4.45-3.58,9.05-5.13,13.81c-0.8,2.45-1.22,4.81-1.59,6.88c-0.15,0.85-0.3,1.71-0.49,2.56
	c-1.81,8.33-2.64,17.24-2.52,27.23c0.26,21.91,0.33,44.2,0.4,65.77c0.02,6.72,0.04,13.44,0.07,20.17H104.79
	c-17.39,0-31.49,14.1-31.49,31.49v258.2c0,17.39,14.1,31.49,31.49,31.49h388.49c17.39,0,31.49-14.1,31.49-31.49v-258.2
	C524.77,329.78,510.67,315.68,493.28,315.68z"/>
<path class="st1" d="M304.8,616.24c1.52-2.79,3.2-5.5,4.53-8.38c2.99-6.45,5.64-13.05,8.75-19.43c1.95-4.01,4.48-7.73,6.72-11.6
	c2.36-4.08,4.76-8.14,7-12.28c3.05-5.62,3.78-11.78,2.91-17.94c-0.66-4.7,0.17-8.61,3.01-12.32c1.64-2.15,2.94-4.57,4.41-6.85
	c5.48-8.55,5.8-17.52,2.23-26.83c-0.94-2.46-1.8-4.95-2.64-7.44c-0.79-2.34-0.45-4.56,0.83-6.66c0.62-1.02,1.13-2.12,1.82-3.1
	c5.05-7.22,6.13-15.14,4.91-23.77c-1.02-7.26-3.29-13.97-6.76-20.33c-0.71-1.3-0.63-2.12,0.2-3.38c2.91-4.39,5.67-8.89,8.36-13.42
	c0.83-1.4,1.57-1.54,3.03-0.94c8.09,3.36,15.58,7.74,22.73,12.77c3.66,2.58,7.4,5.04,11.17,7.45c3.85,2.46,8.02,3.9,12.69,3.6
	c4.85-0.31,8.51-2.44,10.87-6.75c1.68-3.08,2.42-6.41,2.64-9.87c0.46-7.15-0.47-14.19-1.59-21.23c-1.15-7.26-2.29-14.52-4.51-21.55
	c-0.36-1.15-0.08-1.69,1.17-1.56c0.24,0.02,0.48,0,0.72,0c30.62-0.17,61.24-0.33,91.87-0.5c0.56,0,1.12,0.04,1.68,0.06
	c1.06,0.48,1.12,1.48,1.2,2.43c0.1,1.12,0.05,2.24,0.05,3.36c0,34.07-0.42,68.15,0.12,102.21c0.58,36.47-0.15,72.93,0.51,109.39
	c0.18,9.95-8.08,15.82-15.48,16.07c-0.8,0.03-1.6,0.03-2.4,0.03c-59.34,0-118.69,0-178.03,0c-0.96,0-1.93,0.06-2.87-0.09
	C305.89,617.28,304.97,617.32,304.8,616.24z"/>
<path class="st1" d="M94.11,383.91c30.39,0.17,60.77,0.35,91.16,0.52c2.95,0.02,2.94,0.01,2.13,2.9
	c-3.09,11.04-4.77,22.34-5.7,33.74c-0.32,3.93-0.07,8.04,0.68,11.91c2.55,13.2,13.04,14.11,20.99,11.09
	c2.44-0.93,4.72-2.35,6.93-3.78c4.43-2.86,8.79-5.84,13.12-8.85c5.67-3.95,11.82-7,18.15-9.7c2.61-1.11,2.11-0.95,3.33,0.98
	c2.96,4.65,5.89,9.32,8.78,14.01c0.27,0.44,0.3,1.2,0.12,1.69c-0.39,1.04-0.98,2.01-1.5,2.99c-4.57,8.54-6.19,17.73-6.09,27.31
	c0.04,3.52,1.03,6.79,2.67,9.86c1.43,2.68,2.95,5.31,4.5,7.92c1.32,2.21,1.5,4.53,0.78,6.93c-0.5,1.68-1.17,3.31-1.69,4.99
	c-0.97,3.12-2.03,6.22-2.79,9.4c-1.62,6.79,0.28,12.99,3.68,18.82c1.77,3.04,3.68,5.99,5.64,8.91c1.98,2.96,2.85,5.93,2.35,9.67
	c-1.04,7.68-0.09,15.15,4.08,21.96c1.96,3.2,3.67,6.57,5.75,9.68c5.95,8.89,10.13,18.65,14.33,28.41c1.7,3.96,3.1,8.06,6.01,11.37
	c-0.56,0.71-1.37,0.77-2.16,0.84c-0.8,0.07-1.6,0.05-2.4,0.05c-58.85,0-117.7,0-176.55,0.01c-4.78,0-9.19-1.01-12.99-4.08
	c-2.83-2.29-4.28-5.21-4.61-8.86c-0.85-9.51-0.07-19-0.04-28.5c0.13-49.1-0.11-98.2,0.17-147.29c0.08-13.9,0.25-27.81,0.38-41.72
	C93.3,385.96,93.2,384.8,94.11,383.91z"/>
<path class="st2" d="M94.11,383.91c0,2.56,0,5.12-0.01,7.68c-0.16,62.51-0.31,125.01-0.5,187.52c-0.02,6.54-0.42,13.08-0.38,19.62
	c0.02,3.06,0.32,6.22,1.14,9.15c1.19,4.29,4.76,6.52,8.76,7.74c2.39,0.73,5.01,1.01,7.52,1.01c59.4,0.05,118.81,0.04,178.21,0.04
	c0.88,0,1.76-0.04,2.64-0.06c4.51,2.7,8.96,2.81,13.31-0.37c0.76,0.14,1.52,0.41,2.28,0.41c60.78,0.02,121.57,0.01,182.35,0.02
	c6.35,0,12.83-4.31,14.48-9.51c0.31-0.97,0.51-2.01,0.51-3.02c0.02-35.35,0.08-70.7,0-106.06c-0.08-37.01-0.3-74.03-0.47-111.04
	c0-1.02-0.26-2.03-0.4-3.04c0.11-0.37,0.3-0.75,0.3-1.12c-0.07-10.56,0.07-21.12-0.3-31.67c-0.33-9.17-6.84-15.12-16.06-15.34
	c-2.88-0.07-5.76-0.03-8.64-0.03c-26.4,0.02-52.79,0.03-79.19,0.07c-5.68,0.01-11.35,0.11-17.03,0.24c-1.55,0.04-2.66-0.4-3.76-1.57
	c-2.41-2.56-5.04-4.9-7.57-7.35c-0.27-0.26-0.42-0.63-0.63-0.95c0.37-0.1,0.74-0.26,1.12-0.28c0.8-0.05,1.6-0.03,2.4-0.03
	c35.27-0.04,70.55-0.09,105.82-0.1c3.59,0,7.23-0.12,10.77,0.39c13.3,1.91,22.27,11.26,22.79,24.85c0.11,2.96,0.08,5.92,0.09,8.88
	c0.26,80.15,0.51,160.3,0.79,240.45c0.01,3.78-0.22,7.43-1.65,11.03c-2.5,6.29-7.12,10.25-13.11,12.91
	c-4.61,2.05-9.51,2.42-14.44,2.41c-58.79-0.02-117.58-0.1-176.37-0.1c-65.35,0-130.7,0.09-196.05,0.06c-3.97,0-8.1-0.16-11.87-1.25
	c-5.86-1.69-10.68-5.22-14.22-10.43c-2.44-3.58-3.29-7.53-3.28-11.66c0.2-83.03,0.44-166.06,0.74-249.09
	c0.01-3.57-0.02-7.35,1.07-10.67c1.69-5.13,4.87-9.52,9.47-12.69c5.4-3.72,11.43-5.19,17.89-5.18c35.91,0.06,71.83,0.12,107.74,0.19
	c1.36,0,2.72-0.01,4.08,0.01c0.29,0.01,0.57,0.15,0.86,0.23c-0.13,0.26-0.21,0.57-0.41,0.76c-2.91,2.85-5.8,5.73-8.81,8.48
	c-0.55,0.5-1.59,0.67-2.4,0.66c-4.63-0.02-9.27-0.21-13.9-0.21c-29.44-0.04-58.87-0.08-88.31,0.02c-2.72,0.01-5.61,0.6-8.14,1.63
	c-6.01,2.45-8.9,7.34-9.14,13.72c-0.18,4.63-0.11,9.28-0.12,13.92C94.08,371.44,94.1,377.67,94.11,383.91z"/>
<path class="st3" d="M320.57,433.44c3.74-0.03,7.48-0.07,11.21-0.1c1.29,2.21,2.47,4.49,3.89,6.61c4.27,6.36,6.66,13.42,8.16,20.85
	c1.04,5.17,0.43,9.97-2.72,14.39c-2.98,4.19-5.35,8.7-6.74,13.71c-1.17,4.21-1.06,8.12,1.47,11.93c1.4,2.11,2.39,4.51,3.33,6.88
	c1.66,4.18,1.3,8.36-0.84,12.28c-1.41,2.58-3.03,5.08-4.79,7.45c-3.2,4.3-5.16,8.87-4.98,14.4c0.19,6-0.41,11.97-2.2,17.77
	c-1.48,4.8-3.63,9.2-6.78,13.12c-1.6,1.99-3.08,4.08-4.64,6.11c-3.64,4.74-6.32,9.97-8.21,15.64c-1.61,4.84-3.31,9.66-5.09,14.45
	c-0.51,1.36-0.93,3.3-2.68,3.32c-1.79,0.02-2.19-1.94-2.69-3.29c-1.73-4.63-3.45-9.28-4.91-14c-2.37-7.64-6.5-14.28-11.57-20.29
	c-7.05-8.35-10-18.05-10.41-28.73c-0.06-1.6-0.17-3.2-0.09-4.8c0.27-4.9-1.55-9.05-4.36-12.9c-1.6-2.19-3.19-4.41-4.6-6.72
	c-3.12-5.09-3.35-10.41-0.88-15.82c0.83-1.81,1.72-3.63,2.83-5.27c2.24-3.32,2.41-6.84,1.5-10.57c-1.2-4.88-3.19-9.44-6.19-13.42
	c-4.3-5.7-4.45-11.74-2.95-18.43c1.9-8.47,6.12-15.74,10.53-22.99c0.33-0.55,0.64-1.1,0.96-1.66c3.74,0.04,7.47,0.08,11.21,0.12
	c0.44,1.17-0.15,2.18-0.51,3.23c-2.17,6.36-4.38,12.72-5.11,19.44c-0.81,7.45,0.26,14.51,4.61,20.82c2.94,4.26,5.29,8.72,5.85,14
	c0.37,3.54-0.16,6.84-1.85,9.96c-0.69,1.26-1.47,2.47-2.2,3.71c-3.48,5.86-3.16,12,0.92,17.49c1.86,2.5,3.99,4.8,5.38,7.63
	c0.74,1.51,1.08,3.01,0.3,4.6c-4.55,9.23-2.85,18.01,1.97,26.52c2.52,4.45,5.59,8.57,8.19,12.98c1.14,1.93,2.29,3.84,3.13,5.93
	c0.18,0.44,0.39,1,0.91,1.02c0.52,0.02,0.76-0.53,0.96-0.97c3.21-7.02,8.11-13.03,11.8-19.74c4.39-7.99,5.69-16.42,1.89-25.1
	c-0.88-2.02-0.77-3.84,0.24-5.73c1.28-2.42,3.01-4.52,4.69-6.66c4.58-5.83,5.29-12.16,1.1-18.21c-6.06-8.76-4.55-17.02,0.62-25.28
	c2.26-3.6,4.53-7.11,5.4-11.4c1.09-5.42,1.09-10.77-0.17-16.14c-1.23-5.22-2.65-10.38-4.58-15.39
	C320.53,435.31,320,434.43,320.57,433.44z"/>
<path class="st2" d="M258.28,429.75c-2.49-4.1-5.03-8.17-7.36-12.36c-0.91-1.63-1.86-2.04-3.62-1.62
	c-11.74,2.82-22.87,7.06-33.03,13.72c-4,2.62-8.18,5-12.41,7.24c-4.59,2.43-8.46,0.87-10.51-3.87c-1.84-4.26-2-8.74-1.55-13.2
	c2.84-28.19,12.61-53.69,30.07-76.09c5.66-7.27,12.34-13.57,19.78-19.04c1.3-0.95,2.71-1.74,4.03-2.67c0.33-0.23,0.59-0.7,0.68-1.11
	c0.12-0.53,0.03-1.11,0.03-1.67c-0.13-30.23-0.13-60.46-0.49-90.69c-0.1-8.46,0.5-16.75,2.29-24.99c0.61-2.82,0.93-5.74,1.82-8.47
	c1.49-4.58,3.28-9.08,5.05-13.56c1.56-3.95,3.23-7.87,4.95-11.76c0.53-1.2,1.47-2.21,2.08-3.37c3.67-7.02,7.89-13.72,12.78-19.91
	c5.79-7.35,12.2-14.17,20.05-19.45c3.81-2.56,6.33-2.58,10.14,0.04c9.96,6.87,17.71,15.86,24.52,25.73
	c6.42,9.31,11.69,19.24,15.82,29.77c4.76,12.12,7.94,24.63,8.68,37.67c0.15,2.7-0.16,5.42-0.17,8.12
	c-0.15,30.15-0.27,60.3-0.45,90.45c-0.01,1.79,0.31,2.84,2.01,3.99c12.35,8.35,22.35,19.03,30.31,31.61
	c10.61,16.76,17.42,35.02,20.99,54.46c1.02,5.54,1.15,11.28,1.29,16.93c0.06,2.4-0.69,4.9-1.43,7.23c-1.33,4.17-5.73,6.16-9.66,4.24
	c-4.15-2.04-8.27-4.23-12.09-6.83c-9.99-6.79-21-11.12-32.58-14.18c-1.64-0.43-2.57-0.13-3.43,1.48c-1.8,3.38-4.01,6.55-5.79,9.94
	c-3.63,7.49-11.16,6.54-12.16,6.54c-2.59,0.01-5.18,0.1-7.75-0.05c-2.3,0-4.62,0.05-6.93-0.03c-1.74-0.06-2.6,0.66-3.01,2.34
	c-0.99,4.07-2.49,7.93-5.28,11.15c-5.18,5.96-10.37,5.97-15.26,0.73c-3-3.22-4.95-7.06-5.85-11.36c-0.43-2.08-1.44-3.03-3.61-2.86
	c-1.59,0.13-3.19-0.01-4.8,0.06c-2.47,0.11-4.94,0.07-7.4,0.04C268.01,434.09,261.09,434.49,258.28,429.75z"/>
<path class="st3" d="M115.36,370.01c-6.07,0.01-11.24-5.07-11.27-11.06c-0.03-6.36,5.07-11.51,11.35-11.48
	c6.22,0.03,11.27,5.12,11.25,11.32C126.67,365.01,121.63,370,115.36,370.01z"/>
<path class="st1" d="M169.7,370c-6.1,0.04-11.28-4.93-11.38-10.93c-0.11-6.32,4.97-11.56,11.23-11.59
	c6.21-0.03,11.33,5.01,11.37,11.2C180.96,364.88,175.93,369.95,169.7,370z"/>
<path class="st4" d="M154.13,359.11c-0.08,6.22-5.14,10.96-11.6,10.85c-5.89-0.1-11.02-5.34-10.93-11.18
	c0.1-6.25,5.43-11.44,11.63-11.3C149.46,347.61,154.21,352.68,154.13,359.11z"/>
<path class="st4" d="M344.04,377.18c-0.02,9.59-0.17,19.19-0.26,28.78c-0.02,2.25-0.03,2.15-2.43,2.13
	c-9.12-0.1-18.23-0.13-27.35-0.19c-0.56,0-1.12-0.03-1.68-0.02c-0.92,0.02-1.29-0.45-1.27-1.33c0.01-0.64,0-1.28,0-1.92
	c0-21.43,0.1-42.87-0.06-64.3c-0.04-6.03-1.26-11.91-5.17-16.88c-1.65-2.1-3.76-3.5-6.25-4.22c-3.02-0.88-5.51,0.58-7.66,2.45
	c-3.82,3.3-5.38,7.78-6.32,12.6c-0.78,4.04-0.81,8.09-0.81,12.17c0.02,19.51,0.01,39.03,0.01,58.54c0,2.89-0.01,2.91-2.84,2.92
	c-7.12,0.04-14.23,0.05-21.35,0.11c-1.92,0.02-3.83,0.17-5.75,0.26c-2.8,0.12-2.81,0.11-2.82-2.59c-0.02-6.24-0.02-12.48-0.04-18.71
	c-0.05-17.27-0.08-34.55-0.15-51.82c-0.15-35.75-0.33-71.49-0.49-107.24c0-0.16,0-0.32,0-0.48c-0.06-4.6-0.06-4.59,4.36-6.29
	c10.75-4.12,21.92-6.28,33.37-7.23c16.75-1.39,32.98,1.08,48.84,6.38c1.59,0.53,3.1,1.3,4.7,1.8c1.66,0.52,2.09,1.54,2.07,3.22
	c-0.09,12-0.1,23.99-0.11,35.99C344.57,279.38,344.08,356.63,344.04,377.18z"/>
<path class="st3" d="M344.19,213.64c0.19,1.17-0.54,1.13-1.42,0.76c-8.07-3.41-16.68-4.89-25.14-6.86
	c-3.39-0.79-6.95-1.06-10.45-1.16c-6.15-0.18-12.31-0.1-18.46-0.03c-5.62,0.06-11.1,1.18-16.5,2.61
	c-6.24,1.66-12.44,3.46-18.64,5.25c-1.98,0.57-1.95,0.65-1.68-1.29c2.25-16.11,7.9-31.04,15.71-45.22
	c5.59-10.13,12.2-19.5,20.58-27.53c2.53-2.42,5.43-4.45,8.05-6.79c1.31-1.17,2.29-0.9,3.55,0.03c7.01,5.15,12.99,11.34,18.18,18.28
	c11.73,15.69,19.93,33.05,24.44,52.13c0.68,2.87,1.13,5.79,1.67,8.69C344.15,212.82,344.15,213.15,344.19,213.64z"/>
<path class="st3" d="M244.81,378.41c0,9.52-0.06,19.03,0.05,28.55c0.02,1.86-0.68,2.49-2.32,2.84c-12.46,2.6-23.75,7.86-34.23,15
	c-2.5,1.7-5.2,3.14-7.89,4.53c-2.41,1.25-3.55,0.65-3.54-2.03c0.02-3.98,0.17-7.99,0.64-11.94c1.82-15.22,6.65-29.58,13.15-43.38
	c4.16-8.83,9.23-17.13,15.54-24.68c4.7-5.61,9.9-10.63,15.51-15.28c0.25-0.2,0.47-0.44,0.75-0.6c0.53-0.31,1.1-0.57,1.65-0.85
	c0.1,0.6,0.29,1.19,0.29,1.79c0.02,15.35,0.01,30.7,0.01,46.05C244.54,378.41,244.67,378.41,244.81,378.41z"/>
<path class="st3" d="M367.92,345.03c11.06,12.92,18.82,27.67,24.17,43.75c2.6,7.81,5.03,15.66,6.01,23.87
	c0.52,4.35,1.07,8.73,1.11,13.1c0.05,4.88-1.27,5.05-4.84,2.97c-4.34-2.54-8.53-5.33-12.87-7.86c-8.68-5.05-17.84-8.9-27.7-11.02
	c-2.56-0.55-2.56-0.6-2.55-3.3c0.04-24.46,0.09-48.91,0.14-73.37c0-0.4-0.02-0.8,0.01-1.2c0.11-1.52,0.5-1.75,1.69-0.76
	c3.01,2.5,5.94,5.09,8.9,7.64C363.79,340.19,367.51,344.64,367.92,345.03z"/>
<path class="st3" d="M292.22,384.61c0-15.59,0-31.18,0-46.77c0-3.64,0.98-6.95,3.38-9.74c1.82-2.12,3.08-2.07,4.82,0.08
	c2.25,2.77,3.41,5.99,3.41,9.52c0.02,31.18-0.02,62.36-0.03,93.55c0,3.9-1.28,7.39-3.46,10.53c-1.85,2.66-3.01,2.61-4.79-0.06
	c-2.08-3.11-3.32-6.49-3.31-10.33c0.04-15.59,0.02-31.18,0.02-46.77C292.25,384.61,292.23,384.61,292.22,384.61z"/>
<path class="st5" d="M361.99,338.85c1.1,1.24,2.21,2.48,3.31,3.71"/>
<path class="st5" d="M366.26,343.54c-0.31-0.32-0.63-0.63-0.94-0.95C365.64,342.9,365.95,343.22,366.26,343.54z"/>
<path class="st5" d="M366.73,344.03c-0.15-0.16-0.31-0.32-0.46-0.47C366.42,343.72,366.58,343.87,366.73,344.03z"/>
<path class="st5" d="M367.21,344.51c-0.16-0.16-0.32-0.32-0.48-0.48C366.9,344.2,367.05,344.35,367.21,344.51z"/>
<path class="st2" d="M297.99,232.7c17.1,0.21,30.34,12.79,30.56,30.16c0.22,17.28-13.69,30.58-30.44,30.6
	c-17.21,0.03-30.61-13.23-30.5-30.42C267.72,244.65,282.3,232.83,297.99,232.7z"/>
<path class="st2" d="M298.09,228.87c-1.92,0.05-3.37-1.36-3.35-3.26c0.01-1.71,1.5-3.18,3.23-3.2c1.59-0.02,3.25,1.59,3.31,3.2
	C301.33,227.21,299.76,228.82,298.09,228.87z"/>
<path class="st2" d="M297.68,303.77c-1.92,0.05-3.37-1.36-3.35-3.26c0.01-1.71,1.5-3.18,3.23-3.2c1.59-0.02,3.25,1.59,3.31,3.2
	C300.93,302.11,299.36,303.72,297.68,303.77z"/>
<path class="st2" d="M336.52,265.58c-1.72,0.02-3.21-1.48-3.22-3.23c-0.01-1.52,1.51-3.08,3.07-3.15c1.63-0.08,3.29,1.47,3.35,3.13
	C339.78,263.99,338.23,265.56,336.52,265.58z"/>
<path class="st2" d="M270.74,292.92c-1.72,0.01-3.21-1.49-3.21-3.23c0-1.53,1.51-3.07,3.08-3.14c1.64-0.07,3.28,1.48,3.34,3.13
	C274,291.35,272.44,292.92,270.74,292.92z"/>
<path class="st2" d="M325.17,292.78c-1.87-0.02-3.16-1.34-3.09-3.16c0.07-1.7,1.36-3.01,3.03-3.07c1.76-0.05,3.17,1.32,3.2,3.12
	C328.35,291.5,327.04,292.79,325.17,292.78z"/>
<path class="st2" d="M327.79,241.82c-1.82,0.05-3.24-1.27-3.28-3.04c-0.04-1.77,1.33-3.16,3.13-3.19c1.72-0.02,3.01,1.19,3.09,2.92
	C330.83,240.4,329.6,241.78,327.79,241.82z"/>
<path class="st2" d="M256.31,262.32c0.04-1.72,1.36-3.09,2.97-3.11c1.75-0.02,3.35,1.63,3.26,3.38c-0.09,1.69-1.69,3.11-3.38,2.99
	C257.62,265.47,256.27,263.92,256.31,262.32z"/>
<path class="st2" d="M268.29,241.83c-1.73,0.01-3.23-1.47-3.21-3.16c0.03-1.71,1.54-3.12,3.29-3.07c1.57,0.04,3.06,1.51,3.11,3.04
	C271.54,240.23,269.95,241.82,268.29,241.83z"/>
<path class="st0" d="M298.21,238.42c11-0.54,24.26,8.98,24.31,24.47c0.04,13.63-10.88,24.57-24.49,24.58
	c-13.63,0.01-24.39-10.89-24.4-24.65C273.6,247.09,287.37,237.69,298.21,238.42z"/>
</svg>
